HIERARCHY
ROOT Hips
{
	OFFSET -0.066283 88.859909 3.106752
	CHANNELS 6 Xposition Yposition Zposition Zrotation Yrotation Xrotation 
	JOINT Spine
	{
		OFFSET -0.000000 8.814246 -2.080107
		CHANNELS 3 Zrotation Yrotation Xrotation
		JOINT Spine1
		{
			OFFSET -0.000000 8.844141 0.000000
			CHANNELS 3 Zrotation Yrotation Xrotation
			JOINT Spine2
			{
				OFFSET 0.000000 11.682268 0.000000
				CHANNELS 3 Zrotation Yrotation Xrotation
				JOINT Spine3
				{
					OFFSET -0.000000 11.746700 0.000000
					CHANNELS 3 Zrotation Yrotation Xrotation
					JOINT Neck
					{
						OFFSET -0.000000 17.658264 0.000000
						CHANNELS 3 Zrotation Yrotation Xrotation
						JOINT Neck1
						{
							OFFSET 0.000000 5.101515 -0.000000
							CHANNELS 3 Zrotation Yrotation Xrotation
							JOINT Head
							{
								OFFSET -0.000000 5.101515 -0.000000
								CHANNELS 3 Zrotation Yrotation Xrotation
								JOINT HeadEnd
								{
									OFFSET 0.000000 11.655085 -0.000000
									CHANNELS 3 Zrotation Yrotation Xrotation
									End Site
									{
										OFFSET 0.000000 0.000000 0.000000
									}
								}
							}
						}
					}
					JOINT RightShoulder
					{
						OFFSET -2.625389 11.175210 -0.000000
						CHANNELS 3 Zrotation Yrotation Xrotation
						JOINT RightArm
						{
							OFFSET 0.000000 10.434715 -0.000000
							CHANNELS 3 Zrotation Yrotation Xrotation
							JOINT RightForeArm
							{
								OFFSET -0.000000 29.628420 0.000000
								CHANNELS 3 Zrotation Yrotation Xrotation
								JOINT RightHand
								{
									OFFSET -0.000000 22.857611 0.000000
									CHANNELS 3 Zrotation Yrotation Xrotation
									JOINT RightHandThumb1
									{
										OFFSET -2.867323 3.959563 2.944291
										CHANNELS 3 Zrotation Yrotation Xrotation
										JOINT RightHandThumb2
										{
											OFFSET -0.000000 3.350399 0.000000
											CHANNELS 3 Zrotation Yrotation Xrotation
											JOINT RightHandThumb3
											{
												OFFSET -0.000000 3.756509 -0.000000
												CHANNELS 3 Zrotation Yrotation Xrotation
												JOINT RightHandThumb4
												{
													OFFSET -0.000000 3.147345 0.000000
													CHANNELS 3 Zrotation Yrotation Xrotation
													End Site
													{
														OFFSET 0.000000 0.000000 0.000000
													}
												}
											}
										}
									}
									JOINT RightHandIndex1
									{
										OFFSET -0.086752 10.030893 2.345280
										CHANNELS 3 Zrotation Yrotation Xrotation
										JOINT RightHandIndex2
										{
											OFFSET 0.000000 4.061090 -0.000000
											CHANNELS 3 Zrotation Yrotation Xrotation
											JOINT RightHandIndex3
											{
												OFFSET 0.000000 3.248873 -0.000000
												CHANNELS 3 Zrotation Yrotation Xrotation
												JOINT RightHandIndex4
												{
													OFFSET 0.000000 2.639709 0.000000
													CHANNELS 3 Zrotation Yrotation Xrotation
													End Site
													{
														OFFSET 0.000000 0.000000 0.000000
													}
												}
											}
										}
									}
									JOINT RightHandMiddle1
									{
										OFFSET 0.104102 9.502952 0.006768
										CHANNELS 3 Zrotation Yrotation Xrotation
										JOINT RightHandMiddle2
										{
											OFFSET 0.000000 4.568727 0.000000
											CHANNELS 3 Zrotation Yrotation Xrotation
											JOINT RightHandMiddle3
											{
												OFFSET 0.000000 3.654981 -0.000000
												CHANNELS 3 Zrotation Yrotation Xrotation
												JOINT RightHandMiddle4
												{
													OFFSET -0.000000 2.741236 0.000000
													CHANNELS 3 Zrotation Yrotation Xrotation
													End Site
													{
														OFFSET 0.000000 0.000000 0.000000
													}
												}
											}
										}
									}
									JOINT RightHandRing1
									{
										OFFSET 0.086752 8.921708 -2.267442
										CHANNELS 3 Zrotation Yrotation Xrotation
										JOINT RightHandRing2
										{
											OFFSET 0.000000 4.061090 -0.000000
											CHANNELS 3 Zrotation Yrotation Xrotation
											JOINT RightHandRing3
											{
												OFFSET -0.000000 3.654981 0.000000
												CHANNELS 3 Zrotation Yrotation Xrotation
												JOINT RightHandRing4
												{
													OFFSET -0.000000 2.741236 0.000000
													CHANNELS 3 Zrotation Yrotation Xrotation
													End Site
													{
														OFFSET 0.000000 0.000000 0.000000
													}
												}
											}
										}
									}
									JOINT RightHandPinky1
									{
										OFFSET -0.173504 7.976997 -4.467199
										CHANNELS 3 Zrotation Yrotation Xrotation
										JOINT RightHandPinky2
										{
											OFFSET -0.000000 3.350399 0.000000
											CHANNELS 3 Zrotation Yrotation Xrotation
											JOINT RightHandPinky3
											{
												OFFSET 0.000000 2.842763 0.000000
												CHANNELS 3 Zrotation Yrotation Xrotation
												JOINT RightHandPinky4
												{
													OFFSET 0.000000 2.639709 0.000000
													CHANNELS 3 Zrotation Yrotation Xrotation
													End Site
													{
														OFFSET 0.000000 0.000000 0.000000
													}
												}
											}
										}
									}
									JOINT RightForeArmEnd
									{
										OFFSET 0.000000 0.000000 0.000000
										CHANNELS 3 Zrotation Yrotation Xrotation
										End Site
										{
											OFFSET 0.000000 0.000000 0.000000
										}
									}
								}
								JOINT RightArmEnd
								{
									OFFSET 0.000000 0.000000 0.000000
									CHANNELS 3 Zrotation Yrotation Xrotation
									End Site
									{
										OFFSET 0.000000 0.000000 0.000000
									}
								}
							}
						}
					}
					JOINT LeftShoulder
					{
						OFFSET 2.625389 11.175210 0.000000
						CHANNELS 3 Zrotation Yrotation Xrotation
						JOINT LeftArm
						{
							OFFSET -0.000000 10.813635 -0.000000
							CHANNELS 3 Zrotation Yrotation Xrotation
							JOINT LeftForeArm
							{
								OFFSET -0.000000 28.724781 -0.000000
								CHANNELS 3 Zrotation Yrotation Xrotation
								JOINT LeftHand
								{
									OFFSET 0.644384 25.716167 -0.328871
									CHANNELS 3 Zrotation Yrotation Xrotation
									JOINT LeftHandThumb1
									{
										OFFSET 2.867323 3.959563 2.944291
										CHANNELS 3 Zrotation Yrotation Xrotation
										JOINT LeftHandThumb2
										{
											OFFSET 0.000000 3.350399 0.000000
											CHANNELS 3 Zrotation Yrotation Xrotation
											JOINT LeftHandThumb3
											{
												OFFSET -0.000000 3.756509 -0.000000
												CHANNELS 3 Zrotation Yrotation Xrotation
												JOINT LeftHandThumb4
												{
													OFFSET 0.000000 3.100000 0.000000
													CHANNELS 3 Zrotation Yrotation Xrotation
													End Site
													{
														OFFSET 0.000000 0.000000 0.000000
													}
												}
											}
										}
									}
									JOINT LeftHandIndex1
									{
										OFFSET 0.086752 10.030893 2.345280
										CHANNELS 3 Zrotation Yrotation Xrotation
										JOINT LeftHandIndex2
										{
											OFFSET 0.000000 4.061090 0.000000
											CHANNELS 3 Zrotation Yrotation Xrotation
											JOINT LeftHandIndex3
											{
												OFFSET -0.000000 3.248873 -0.000000
												CHANNELS 3 Zrotation Yrotation Xrotation
												JOINT LeftHandIndex4
												{
													OFFSET 0.000000 2.639709 0.000000
													CHANNELS 3 Zrotation Yrotation Xrotation
													End Site
													{
														OFFSET 0.000000 0.000000 0.000000
													}
												}
											}
										}
									}
									JOINT LeftHandMiddle1
									{
										OFFSET -0.104102 9.502952 0.006768
										CHANNELS 3 Zrotation Yrotation Xrotation
										JOINT LeftHandMiddle2
										{
											OFFSET -0.000000 4.568727 -0.000000
											CHANNELS 3 Zrotation Yrotation Xrotation
											JOINT LeftHandMiddle3
											{
												OFFSET -0.000000 3.654981 -0.000000
												CHANNELS 3 Zrotation Yrotation Xrotation
												JOINT LeftHandMiddle4
												{
													OFFSET 0.000000 2.741236 0.000000
													CHANNELS 3 Zrotation Yrotation Xrotation
													End Site
													{
														OFFSET 0.000000 0.000000 0.000000
													}
												}
											}
										}
									}
									JOINT LeftHandRing1
									{
										OFFSET -0.086752 8.921708 -2.267442
										CHANNELS 3 Zrotation Yrotation Xrotation
										JOINT LeftHandRing2
										{
											OFFSET 0.000000 4.061090 0.000000
											CHANNELS 3 Zrotation Yrotation Xrotation
											JOINT LeftHandRing3
											{
												OFFSET 0.000000 3.654981 -0.000000
												CHANNELS 3 Zrotation Yrotation Xrotation
												JOINT LeftHandRing4
												{
													OFFSET -0.000000 2.741236 -0.000000
													CHANNELS 3 Zrotation Yrotation Xrotation
													End Site
													{
														OFFSET 0.000000 0.000000 0.000000
													}
												}
											}
										}
									}
									JOINT LeftHandPinky1
									{
										OFFSET 0.173504 7.976997 -4.467199
										CHANNELS 3 Zrotation Yrotation Xrotation
										JOINT LeftHandPinky2
										{
											OFFSET -0.000000 3.350399 -0.000000
											CHANNELS 3 Zrotation Yrotation Xrotation
											JOINT LeftHandPinky3
											{
												OFFSET 0.000000 2.842763 -0.000000
												CHANNELS 3 Zrotation Yrotation Xrotation
												JOINT LeftHandPinky4
												{
													OFFSET -0.000000 2.639709 -0.000000
													CHANNELS 3 Zrotation Yrotation Xrotation
													End Site
													{
														OFFSET 0.000000 0.000000 0.000000
													}
												}
											}
										}
									}
									JOINT LeftForeArmEnd
									{
										OFFSET 0.000000 0.000000 0.000000
										CHANNELS 3 Zrotation Yrotation Xrotation
										End Site
										{
											OFFSET 0.000000 0.000000 0.000000
										}
									}
								}
								JOINT LeftArmEnd
								{
									OFFSET 0.000000 0.000000 0.000000
									CHANNELS 3 Zrotation Yrotation Xrotation
									End Site
									{
										OFFSET 0.000000 0.000000 0.000000
									}
								}
							}
						}
					}
				}
			}
		}
	}
	JOINT RightUpLeg
	{
		OFFSET -11.289943 -0.000000 0.000000
		CHANNELS 3 Zrotation Yrotation Xrotation
		JOINT RightLeg
		{
			OFFSET 0.000000 -38.200325 -0.000000
			CHANNELS 3 Zrotation Yrotation Xrotation
			JOINT RightFoot
			{
				OFFSET -0.000000 -39.900856 0.000000
				CHANNELS 3 Zrotation Yrotation Xrotation
				JOINT RightToeBase
				{
					OFFSET 0.000000 0.000000 15.261641
					CHANNELS 3 Zrotation Yrotation Xrotation
					JOINT RightToeBaseEnd
					{
						OFFSET 0.000000 0.000000 7.370709
						CHANNELS 3 Zrotation Yrotation Xrotation
						End Site
						{
							OFFSET 0.000000 0.000000 0.000000
						}
					}
				}
				JOINT RightLegEnd
				{
					OFFSET 0.000000 0.000000 0.000000
					CHANNELS 3 Zrotation Yrotation Xrotation
					End Site
					{
						OFFSET 0.000000 0.000000 0.000000
					}
				}
			}
			JOINT RightUpLegEnd
			{
				OFFSET 0.000000 0.000000 0.000000
				CHANNELS 3 Zrotation Yrotation Xrotation
				End Site
				{
					OFFSET 0.000000 0.000000 0.000000
				}
			}
		}
	}
	JOINT LeftUpLeg
	{
		OFFSET 11.315661 0.000000 0.000000
		CHANNELS 3 Zrotation Yrotation Xrotation
		JOINT LeftLeg
		{
			OFFSET 0.000000 -38.200325 -0.000000
			CHANNELS 3 Zrotation Yrotation Xrotation
			JOINT LeftFoot
			{
				OFFSET 0.000000 -39.900856 -0.000000
				CHANNELS 3 Zrotation Yrotation Xrotation
				JOINT LeftToeBase
				{
					OFFSET 0.000000 -0.000000 15.261641
					CHANNELS 3 Zrotation Yrotation Xrotation
					JOINT LeftToeBaseEnd
					{
						OFFSET -0.000000 0.000000 7.539996
						CHANNELS 3 Zrotation Yrotation Xrotation
						End Site
						{
							OFFSET 0.000000 0.000000 0.000000
						}
					}
				}
				JOINT LeftLegEnd
				{
					OFFSET 0.000000 0.000000 0.000000
					CHANNELS 3 Zrotation Yrotation Xrotation
					End Site
					{
						OFFSET 0.000000 0.000000 0.000000
					}
				}
			}
			JOINT LeftUpLegEnd
			{
				OFFSET 0.000000 0.000000 0.000000
				CHANNELS 3 Zrotation Yrotation Xrotation
				End Site
				{
					OFFSET 0.000000 0.000000 0.000000
				}
			}
		}
	}
}
MOTION
Frames: 5
Frame Time: 0.016667
-0.495967 88.325745 0.904068 -0.129696 -1.030255 -11.358798 -0.923134 0.066653 7.292627 0.387845 0.025345 0.974975 0.314961 -0.084945 5.143114 1.455994 -0.213204 4.786666 -0.935138 1.688035 4.903368 0.181013 1.804540 -2.378857 -0.719569 0.440299 -20.489559 0.000000 0.000000 0.000000 87.892677 0.022184 4.223105 69.160423 -6.868237 0.142969 -0.545220 14.907949 79.608200 27.623173 36.587383 1.560164 8.082232 -1.490484 41.171158 -0.000002 0.000022 -19.454325 -0.000010 0.000048 -13.572979 0.000010 0.000002 0.000002 3.769223 17.180357 0.388150 3.280812 -0.966018 -0.616343 3.121176 0.015075 -0.560875 -0.000001 0.000030 -0.000012 4.216041 7.060777 -4.134692 3.113284 -1.000685 -0.286321 3.246202 -0.003584 -0.229085 0.000011 0.000096 0.000015 10.903794 -8.857046 -10.375383 4.627138 1.961685 0.524841 4.591268 -0.014934 0.421565 -0.000015 -0.000982 0.000017 21.052408 -24.178429 -18.225845 6.531872 3.763647 2.411888 6.623165 -0.170429 2.092318 0.000046 0.000007 -0.000047 0.000000 0.000000 0.000000 0.000000 0.000000 0.000000 -89.855026 -0.186664 8.255203 -64.617332 18.481209 0.821489 0.809438 -15.650859 83.003975 -9.051026 -16.663599 -1.574827 -8.846052 1.636590 40.706406 0.000022 0.000019 -21.548067 0.000040 -0.000020 -15.011199 0.001833 0.000004 -0.000372 -5.452442 16.892233 -3.840608 -2.773059 -0.952769 0.613809 -2.812919 0.020515 0.584172 -0.000003 -0.001549 0.000008 -4.583503 6.965037 -6.970300 -2.450934 -0.995099 0.236448 -2.315304 -0.002617 0.212370 -0.001529 -0.000008 0.000072 -2.677066 -8.822994 -12.379347 -2.772571 1.970537 -0.474371 -2.555914 -0.017583 -0.376546 -0.000432 0.000010 0.000003 3.250362 -24.838737 -19.505117 -2.674372 3.825812 -1.494527 -2.956415 -0.103995 -1.395649 0.000647 0.000002 -0.000042 0.000000 0.000000 0.000000 0.000000 0.000000 0.000000 1.749098 6.221334 10.122865 -0.110692 -0.459395 10.162725 -4.929041 3.568198 16.006546 -0.364429 0.453941 -19.981102 0.000000 0.000000 0.000000 0.000000 0.000000 0.000000 0.000000 0.000000 0.000000 2.729224 12.813268 17.372843 0.040436 0.703075 3.829060 0.673103 9.155109 16.430769 1.010994 -0.881662 -17.975885 0.000000 0.000000 0.000000 0.000000 0.000000 0.000000 0.000000 0.000000 0.000000 
-0.499490 88.320618 0.878741 -0.118427 -0.998544 -11.389216 -0.930632 0.067140 7.278307 0.360589 0.028772 0.981378 0.357225 -0.110711 5.108049 1.461021 -0.215501 4.797301 -0.947376 1.737416 4.884013 0.196315 1.868979 -2.406905 -0.728251 0.444225 -20.505161 0.000000 0.000000 0.000000 87.828514 0.017533 4.275757 68.795876 -7.023812 0.373849 -0.570736 14.835211 80.874138 28.175541 36.806984 2.039465 8.047837 -1.486240 41.187595 -0.000002 0.000022 -19.364088 -0.000010 0.000048 -13.508819 0.000010 0.000002 0.000003 3.595333 17.175631 0.500372 3.183915 -0.968370 -0.595545 3.022252 0.012277 -0.540065 -0.000001 0.000029 -0.000012 4.053419 7.057212 -4.084169 3.002343 -1.001547 -0.277798 3.142485 -0.004782 -0.221652 0.000011 0.000098 0.000015 10.783510 -8.849280 -10.419455 4.503541 1.963100 0.512748 4.472008 -0.013308 0.412303 -0.000014 -0.000982 0.000017 21.015276 -24.146595 -18.350151 6.435798 3.768217 2.383926 6.521004 -0.164701 2.066452 0.000059 0.000007 -0.000047 0.000000 0.000000 0.000000 0.000000 0.000000 0.000000 -89.827835 -0.190441 8.339981 -64.150558 18.778427 1.228434 0.857332 -15.369264 83.973671 -9.165809 -16.440559 -1.136957 -8.798631 1.629138 40.732300 0.000022 0.000019 -21.430656 0.000038 -0.000020 -14.925987 0.001771 0.000004 -0.000349 -5.056890 16.911987 -3.766227 -2.648664 -0.956744 0.582023 -2.689607 0.016476 0.556577 -0.000002 -0.001506 0.000008 -4.215603 6.972216 -6.951497 -2.320325 -0.996653 0.224292 -2.187375 -0.003961 0.202278 -0.001549 -0.000008 0.000076 -2.300575 -8.830825 -12.454643 -2.624858 1.973271 -0.459940 -2.404587 -0.015779 -0.365596 -0.000426 0.000010 0.000003 3.646713 -24.841923 -19.666391 -2.542425 3.832546 -1.453090 -2.822183 -0.098576 -1.360026 0.000655 0.000003 -0.000041 0.000000 0.000000 0.000000 0.000000 0.000000 0.000000 1.744878 6.224885 10.103819 -0.109825 -0.455108 10.230709 -4.949477 3.612086 15.991920 -0.358182 0.451224 -19.977146 0.000000 0.000000 0.000000 0.000000 0.000000 0.000000 0.000000 0.000000 0.000000 2.727031 12.814042 17.405842 0.040984 0.705181 3.825092 0.692599 9.140182 16.421143 1.010859 -0.880664 -17.958071 0.000000 0.000000 0.000000 0.000000 0.000000 0.000000 0.000000 0.000000 0.000000 
-0.504842 88.316086 0.854694 -0.107235 -0.978180 -11.416337 -0.934315 0.066759 7.263533 0.330316 0.032512 0.988140 0.403590 -0.141854 5.074714 1.470865 -0.220453 4.805538 -0.957422 1.790594 4.868609 0.213284 1.937904 -2.438223 -0.739395 0.445895 -20.522657 0.000000 0.000000 0.000000 87.754814 0.016226 4.323187 68.426559 -7.150270 0.614971 -0.598315 14.772181 82.234955 28.770155 36.978912 2.592148 7.983948 -1.478387 41.218258 -0.000002 0.000021 -19.194952 -0.000011 0.000047 -13.390501 0.000010 0.000002 0.000003 3.260154 17.172459 0.665038 3.017171 -0.974640 -0.558066 2.853078 0.005673 -0.503940 -0.000001 0.000029 -0.000011 3.737139 7.053357 -4.000319 2.819795 -1.004068 -0.262382 2.967519 -0.007356 -0.208490 0.000011 0.000100 0.000015 10.527557 -8.841326 -10.454009 4.304042 1.966993 0.491792 4.276760 -0.009783 0.396082 -0.000014 -0.000971 0.000017 20.877024 -24.120092 -18.497631 6.273703 3.779810 2.332696 6.352842 -0.153412 2.020998 0.000067 0.000007 -0.000047 0.000000 0.000000 0.000000 0.000000 0.000000 0.000000 -89.789162 -0.194227 8.418025 -63.691696 19.034267 1.619315 0.905125 -15.089712 85.000809 -9.286721 -16.197676 -0.658278 -8.726111 1.618509 40.770004 0.000022 0.000019 -21.252991 0.000036 -0.000021 -14.799467 0.001706 0.000004 -0.000329 -4.522163 16.933737 -3.634796 -2.479284 -0.963137 0.539492 -2.522200 0.010183 0.518827 -0.000002 -0.001456 0.000008 -3.719318 6.979934 -6.897606 -2.142427 -0.999284 0.207601 -2.012844 -0.006139 0.188330 -0.001555 -0.000007 0.000079 -1.788857 -8.837765 -12.522661 -2.415371 1.977640 -0.439325 -2.192168 -0.012865 -0.349732 -0.000423 0.000010 0.000003 4.185758 -24.837570 -19.842873 -2.345268 3.843266 -1.394746 -2.623283 -0.090005 -1.310051 0.000665 0.000003 -0.000041 0.000000 0.000000 0.000000 0.000000 0.000000 0.000000 1.741861 6.231050 10.080913 -0.109058 -0.451382 10.306578 -4.972641 3.655961 15.973923 -0.351232 0.448510 -19.971380 0.000000 0.000000 0.000000 0.000000 0.000000 0.000000 0.000000 0.000000 0.000000 2.730494 12.819599 17.446480 0.041405 0.707412 3.812765 0.708216 9.128917 16.412750 1.010911 -0.880580 -17.940283 0.000000 0.000000 0.000000 0.000000 0.000000 0.000000 0.000000 0.000000 0.000000 
-0.511474 88.312943 0.832293 -0.093759 -0.970246 -11.440557 -0.934401 0.065811 7.247177 0.296831 0.037331 0.997109 0.450330 -0.176865 5.044781 1.484849 -0.227312 4.811208 -0.968800 1.852057 4.861555 0.233363 2.015695 -2.472151 -0.753234 0.444846 -20.548012 0.000000 0.000000 0.000000 87.674088 0.019081 4.368075 68.068161 -7.222157 0.868777 -0.628708 14.727698 83.682373 29.416410 37.101624 3.222608 7.902147 -1.467840 41.258282 -0.000002 0.000020 -18.975657 -0.000011 0.000047 -13.237581 0.000010 0.000002 0.000004 2.826177 17.173727 0.870471 2.816145 -0.983854 -0.507751 2.649783 -0.003653 -0.456019 -0.000002 0.000028 -0.000011 3.323586 7.050756 -3.888845 2.601737 -1.007875 -0.241678 2.756885 -0.010908 -0.190934 0.000011 0.000102 0.000015 10.185090 -8.835032 -10.474566 4.065341 1.972840 0.464082 4.042237 -0.004920 0.374536 -0.000013 -0.000949 0.000017 20.677868 -24.101147 -18.652729 6.078422 3.796819 2.263875 6.151625 -0.138226 1.960789 0.000070 0.000008 -0.000047 0.000000 0.000000 0.000000 0.000000 0.000000 0.000000 -89.745590 -0.197816 8.488344 -63.234421 19.236187 1.991298 0.954787 -14.810767 86.093964 -9.421124 -15.927342 -0.125817 -8.633662 1.605397 40.816978 0.000022 0.000019 -21.027586 0.000033 -0.000021 -14.640460 0.001644 0.000004 -0.000316 -3.885309 16.956217 -3.451797 -2.282796 -0.971400 0.488190 -2.328212 0.002135 0.472817 -0.000002 -0.001403 0.000008 -3.126248 6.987898 -6.810030 -1.935015 -1.002757 0.187238 -1.809139 -0.008972 0.171237 -0.001542 -0.000007 0.000082 -1.169945 -8.843947 -12.577833 -2.162378 1.983339 -0.413427 -1.937074 -0.009071 -0.329696 -0.000423 0.000010 0.000003 4.844759 -24.827637 -20.021406 -2.098600 3.857320 -1.321577 -2.375185 -0.078849 -1.247638 0.000675 0.000003 -0.000041 0.000000 0.000000 0.000000 0.000000 0.000000 0.000000 1.736906 6.240734 10.055984 -0.108450 -0.448386 10.384176 -4.999380 3.700688 15.954698 -0.344123 0.445556 -19.962593 0.000000 0.000000 0.000000 0.000000 0.000000 0.000000 0.000000 0.000000 0.000000 2.736742 12.830113 17.495571 0.041703 0.709701 3.790596 0.717100 9.126012 16.406822 1.011492 -0.881717 -17.922216 0.000000 0.000000 0.000000 0.000000 0.000000 0.000000 0.000000 0.000000 0.000000 
-0.518781 88.311691 0.811903 -0.076567 -0.973462 -11.462903 -0.932175 0.064635 7.228119 0.262091 0.043068 1.009735 0.492573 -0.213530 5.017063 1.501218 -0.235208 4.813650 -0.984093 1.924494 4.868323 0.257189 2.103760 -2.505807 -0.769632 0.441291 -20.584236 0.000000 0.000000 0.000000 87.591888 0.026443 4.415882 67.728813 -7.212914 1.144222 -0.661755 14.709231 85.184319 30.113176 37.190685 3.922703 7.816346 -1.456078 41.301296 -0.000001 0.000019 -18.741800 -0.000011 0.000047 -13.074447 0.000010 0.000002 0.000005 2.369384 17.179735 1.102823 2.620367 -0.993943 -0.452623 2.452004 -0.013647 -0.403688 -0.000002 0.000027 -0.000010 2.882326 7.050237 -3.757680 2.389105 -1.012097 -0.218980 2.551212 -0.014710 -0.171749 0.000011 0.000103 0.000014 9.817191 -8.831559 -10.478534 3.831175 1.979291 0.434127 3.812062 0.000215 0.351150 -0.000012 -0.000919 0.000018 20.464022 -24.089903 -18.798800 5.888911 3.815311 2.189788 5.956524 -0.122422 1.896121 0.000070 0.000008 -0.000047 0.000000 0.000000 0.000000 0.000000 0.000000 0.000000 -89.704582 -0.202282 8.554833 -62.774639 19.366644 2.346706 1.006760 -14.535539 87.239540 -9.562003 -15.635073 0.457829 -8.532647 1.591301 40.867718 0.000022 0.000019 -20.781885 0.000030 -0.000022 -14.467876 0.001591 0.000004 -0.000311 -3.213837 16.977749 -3.233836 -2.087324 -0.980273 0.432980 -2.135141 -0.006518 0.423145 -0.000002 -0.001351 0.000007 -2.497799 6.995714 -6.697777 -1.727488 -1.006512 0.165282 -1.605542 -0.012051 0.152772 -0.001512 -0.000006 0.000084 -0.507834 -8.849801 -12.616349 -1.901887 1.989522 -0.384990 -1.675174 -0.004957 -0.307606 -0.000427 0.000010 0.000003 5.559090 -24.816126 -20.186356 -1.837363 3.872693 -1.241029 -2.112711 -0.066682 -1.179124 0.000684 0.000003 -0.000041 0.000000 0.000000 0.000000 0.000000 0.000000 0.000000 1.727555 6.252713 10.031334 -0.107986 -0.446022 10.457215 -5.030126 3.745176 15.936403 -0.337614 0.442171 -19.949640 0.000000 0.000000 0.000000 0.000000 0.000000 0.000000 0.000000 0.000000 0.000000 2.743103 12.844627 17.552221 0.041956 0.711941 3.759407 0.717786 9.133880 16.403595 1.012705 -0.884090 -17.902958 0.000000 0.000000 0.000000 0.000000 0.000000 0.000000 0.000000 0.000000 0.000000 
